<svg xmlns="http://www.w3.org/2000/svg" viewBox="0 0 64 64">
  <defs>
    <radialGradient id="flame" cx="50%" cy="80%" r="70%">
      <stop offset="0%" stop-color="#ffd500"/>
      <stop offset="40%" stop-color="#ff9500"/>
      <stop offset="100%" stop-color="#ff6b35"/>
    </radialGradient>
    <radialGradient id="glow" cx="50%" cy="50%" r="50%">
      <stop offset="0%" stop-color="#ff6b35" stop-opacity="0.3"/>
      <stop offset="100%" stop-color="#ff6b35" stop-opacity="0"/>
    </radialGradient>
  </defs>
  <!-- Glow background -->
  <circle cx="32" cy="32" r="30" fill="url(#glow)"/>
  <!-- Flame body -->
  <path d="M32 6 C32 6, 44 16, 44 26 C44 30, 40 33, 38 32 C40 28, 37 22, 32 18 C32 18, 36 28, 30 34 C28 36, 24 34, 24 30 C24 26, 26 22, 26 22 C24 26, 21 30, 22 36 C23 42, 28 48, 32 50 C36 48, 41 42, 42 36 C44 28, 40 20, 32 6Z" fill="url(#flame)"/>
  <!-- Wave at bottom -->
  <path d="M18 54 Q24 50, 32 54 Q40 58, 46 54" stroke="#ff9500" stroke-width="2" stroke-linecap="round" fill="none" opacity="0.8"/>
  <path d="M22 58 Q28 54, 32 57 Q36 60, 42 57" stroke="#ffd500" stroke-width="1.5" stroke-linecap="round" fill="none" opacity="0.6"/>
</svg>